<svg xmlns="http://www.w3.org/2000/svg" width="524.998" height="146.418" viewBox="0 0 524.998 146.418">
  <path id="パス_121" data-name="パス 121" d="M31.433-56.849l-13.6,25.8H-.18L61.6-148.6,100.157-31.05H82.867l-8.1-25.8Zm7.162-14.072H70.135L58.127-109.939Zm113.895-7.36,28.068,46.267H163.051l-26.477-45.13h-6l-5.643,45.13H108.362l13.745-109.734h21.919q10.706,0,17,1.919a24.177,24.177,0,0,1,10.851,6.539q8.753,8.813,8.753,22.743Q180.63-85.033,152.49-78.281Zm-15.77-48.328-4.34,35.251h7.6q8.392,0,12.515-1.564a16.062,16.062,0,0,0,7.379-5.33,19.681,19.681,0,0,0,4.051-12.366q0-8.315-4.883-12.153t-15.372-3.838Zm104.663.1-11.864,94.6H212.953l11.864-94.6H198.123L200-141.651h68.8l-1.881,15.138Zm63.057-14.945L290.7-31.724H274.129l13.745-109.734Zm91.61,14.387L384.982-116.7Q377.1-128.067,366.9-128.067a17.319,17.319,0,0,0-12.226,4.477,14.645,14.645,0,0,0-4.847,11.229,13.9,13.9,0,0,0,3.328,9.31,32.211,32.211,0,0,0,4.883,4.193q3.219,2.345,8.066,5.188,14.4,8.244,19.243,14.925,4.919,6.752,4.919,17.7,0,14.214-9.549,23.027-9.4,8.813-24.813,8.813-12.443,0-21.051-5.259a35.508,35.508,0,0,1-8.1-6.858,61.622,61.622,0,0,1-7.234-10.27L332.1-59.981q5.136,8.884,10.055,12.224t12.8,3.34q8.753,0,13.709-4.549T373.625-61.9a13.951,13.951,0,0,0-3.617-9.737,32.127,32.127,0,0,0-5.389-4.62q-3.581-2.559-9.079-5.757-12.587-7.32-17.579-13.93-4.774-6.61-4.774-16.56a28.8,28.8,0,0,1,9.4-22.032q9.4-8.813,23.728-8.813a32.046,32.046,0,0,1,15.915,3.7Q388.961-135.956,396.05-127.072Zm64.089,1.812-11.864,94.6H431.71l11.864-94.6H416.88l1.881-15.138h68.8l-1.881,15.138Zm48.508,86.392a8.993,8.993,0,0,1-2.749,6.681,9.322,9.322,0,0,1-6.8,2.7,9.642,9.642,0,0,1-7.017-2.843,9.681,9.681,0,0,1-2.821-7.107,8.91,8.91,0,0,1,2.749-6.61,9.986,9.986,0,0,1,6.945-2.7,9.686,9.686,0,0,1,3.8.746,9.423,9.423,0,0,1,3.074,2.061,9.741,9.741,0,0,1,2.062,3.127A10.1,10.1,0,0,1,508.647-38.867Zm10.634-101.916-10.128,80.95h-15.77l10.055-80.95Z" transform="translate(7.957 175.575) rotate(-3)"/>
</svg>
